<?xml version="1.0" standalone="no"?>
<!DOCTYPE svg PUBLIC "-//W3C//DTD SVG 20010904//EN"
 "http://www.w3.org/TR/2001/REC-SVG-20010904/DTD/svg10.dtd">
<svg version="1.0" xmlns="http://www.w3.org/2000/svg"
 width="500.000000pt" height="500.000000pt" viewBox="0 0 500.000000 500.000000"
 preserveAspectRatio="xMidYMid meet">

<g transform="translate(0.000000,500.000000) scale(0.100000,-0.100000)"
fill="#000000" stroke="none">
<path d="M2778 3133 c-456 -757 -462 -766 -473 -770 -6 -2 -28 25 -48 59 -21
35 -101 164 -179 288 -77 124 -152 244 -167 267 -84 136 -284 456 -354 568
l-82 130 -105 3 c-58 2 -115 0 -127 -3 -34 -8 -28 -29 12 -44 43 -15 80 -67
102 -142 13 -44 17 -130 22 -454 3 -220 8 -404 10 -410 8 -24 -1 -33 -31 -31
-26 1 -34 -3 -36 -19 -4 -26 42 -96 79 -121 20 -13 34 -35 44 -68 29 -95 15
-109 -47 -49 -50 49 -49 30 1 -25 65 -71 95 -50 69 50 -13 50 -13 60 -1 70 19
16 9 54 -28 100 -28 36 -41 98 -19 98 6 0 11 147 12 406 l3 406 30 -51 c24
-42 314 -510 479 -774 21 -34 50 -81 65 -104 171 -278 208 -333 223 -333 11 0
35 30 66 83 27 45 181 300 342 567 161 267 311 515 332 552 22 37 43 70 47 73
20 12 32 -1600 12 -1679 -12 -49 -39 -87 -74 -104 -15 -7 -27 -20 -27 -28 0
-12 29 -14 197 -12 146 2 197 6 200 15 3 7 -6 17 -19 22 -28 11 -50 35 -73 81
-16 30 -19 79 -27 355 -5 176 -7 559 -6 850 4 601 4 602 78 669 22 20 47 36
55 36 8 0 15 7 15 15 0 12 -20 15 -118 15 l-119 0 -335 -557z m-1339 -629 c20
-26 28 -54 15 -54 -18 0 -72 43 -82 64 -21 47 28 40 67 -10z"/>
<path d="M1285 2439 c-10 -15 3 -25 16 -12 7 7 7 13 1 17 -6 3 -14 1 -17 -5z"/>
<path d="M1154 2311 c-54 -26 -104 -70 -104 -92 0 -14 43 -49 59 -49 12 1 10
6 -7 20 -13 11 -22 27 -20 37 5 24 75 70 129 84 60 16 118 -4 182 -64 40 -37
68 -89 55 -103 -12 -12 -38 11 -48 42 -11 32 -30 47 -30 24 0 -18 27 -64 48
-83 26 -23 49 -104 34 -119 -7 -7 -19 -1 -40 22 -35 41 -53 25 -18 -17 52 -62
86 -163 54 -163 -7 0 -27 14 -45 32 -18 17 -35 30 -37 27 -9 -9 66 -89 85 -89
29 0 35 45 15 103 -13 35 -15 52 -7 60 14 14 14 57 1 92 -8 20 -7 30 5 42 39
38 -48 158 -149 204 -57 26 -91 24 -162 -10z"/>
<path d="M1283 1792 l67 -68 0 -57 c0 -31 4 -57 10 -57 6 0 10 18 10 40 0 22
3 40 7 40 4 0 31 -23 60 -52 77 -76 76 -52 -1 32 -64 70 -66 73 -67 128 l-1
57 -12 -46 -11 -47 -55 49 c-81 71 -85 60 -7 -19z"/>
<path d="M1412 1575 c11 -37 17 -69 14 -72 -3 -3 -19 8 -35 26 -26 28 -58 43
-49 24 26 -59 90 -173 99 -179 13 -8 13 -8 -15 59 -21 47 -5 49 41 5 43 -42
42 -23 -7 74 -22 44 -40 86 -40 93 0 7 -6 18 -14 24 -11 9 -10 -4 6 -54z"/>
<path d="M2840 1581 c0 -5 7 -8 17 -7 20 1 54 -54 64 -103 l7 -36 1 34 c1 44
-43 121 -69 121 -11 0 -20 -4 -20 -9z"/>
<path d="M3589 1501 c-50 -34 -166 -148 -157 -156 2 -3 22 8 43 25 41 32 71
40 61 15 -3 -8 -9 -22 -12 -30 -4 -9 -1 -15 8 -15 7 0 14 8 14 18 1 9 4 25 9
35 5 12 3 17 -10 17 -27 0 -14 18 44 58 84 58 84 88 0 33z"/>
<path d="M3405 1450 c-28 -28 -48 -40 -70 -41 -27 -1 -28 -2 -7 -8 23 -6 23
-7 5 -23 -10 -9 -26 -18 -35 -19 -12 -3 -15 -8 -9 -18 7 -10 17 -5 48 23 31
27 50 36 79 37 30 2 33 3 12 6 -34 5 -34 8 -2 50 33 44 27 42 -21 -7z"/>
<path d="M3825 1453 c-33 -17 -115 -92 -115 -105 0 -4 12 -7 28 -7 16 1 20 3
10 6 -10 2 -18 8 -18 12 0 13 44 48 88 70 23 12 42 26 42 31 0 12 1 13 -35 -7z"/>
<path d="M2237 1419 c-26 -17 -47 -33 -47 -35 0 -2 27 9 60 26 33 17 60 32 60
35 0 13 -31 2 -73 -26z"/>
<path d="M3868 1403 c-18 -15 -34 -28 -36 -29 -1 0 0 -9 4 -18 8 -22 37 -20
59 4 10 11 31 20 47 20 21 0 28 -5 28 -20 0 -11 3 -20 6 -20 12 0 94 55 94 63
0 4 -18 -4 -40 -18 -41 -26 -44 -25 -40 10 1 16 -1 18 -11 8 -19 -19 -39 -16
-39 7 0 29 -32 25 -72 -7z m27 -33 c-19 -21 -45 -27 -45 -10 0 5 10 18 22 30
29 27 50 9 23 -20z"/>
<path d="M4096 1401 c-34 -36 -29 -62 11 -60 l28 2 -27 4 c-37 6 -35 16 7 44
36 25 44 39 22 39 -7 0 -26 -13 -41 -29z"/>
<path d="M2710 1381 l-43 -40 36 -6 c20 -4 42 -5 49 -2 7 3 -3 6 -22 7 l-35 1
38 32 c20 18 37 35 37 40 0 16 -20 5 -60 -32z"/>
<path d="M2869 1379 c-39 -42 -65 -51 -56 -19 5 19 4 19 -18 2 -24 -18 -16
-32 17 -32 19 0 74 44 89 71 14 26 9 23 -32 -22z"/>
<path d="M2073 1393 c-7 -2 -13 -10 -13 -16 0 -8 3 -8 11 0 6 6 18 9 25 6 8
-3 14 0 14 6 0 11 -16 13 -37 4z"/>
<path d="M2402 1375 c-17 -14 -36 -25 -43 -25 -11 0 -11 -3 1 -10 8 -5 29 -9
45 -8 23 0 25 2 8 5 -13 2 -23 8 -23 13 0 15 48 43 60 35 5 -3 10 -1 10 4 0
19 -27 12 -58 -14z"/>
<path d="M2554 1389 c-3 -6 -20 -17 -38 -25 -17 -7 -25 -13 -18 -14 8 0 10 -5
6 -12 -5 -8 -2 -9 12 -4 41 17 56 18 65 5 6 -10 9 -7 9 13 0 14 6 29 13 32 6
3 1 3 -12 0 -16 -4 -21 -3 -17 5 4 6 3 11 -3 11 -5 0 -13 -5 -17 -11z"/>
<path d="M3017 1382 c-19 -21 -22 -52 -6 -52 7 0 30 5 52 12 32 10 41 10 45 0
3 -9 14 -6 40 9 21 12 41 25 45 29 9 8 -48 -3 -125 -25 -50 -14 -56 -9 -38 26
13 24 8 24 -13 1z"/>
<path d="M3221 1376 c-26 -28 -21 -46 12 -45 21 0 21 1 -2 10 l-24 9 23 25
c13 14 21 25 18 25 -2 0 -15 -11 -27 -24z"/>
<path d="M2030 1355 c-15 -19 -5 -35 23 -34 22 0 21 0 -2 10 -19 8 -21 12 -11
24 7 8 10 15 7 15 -2 0 -10 -7 -17 -15z"/>
<path d="M2147 1363 c-17 -4 -17 -6 5 -21 25 -18 31 -16 33 11 2 17 -4 19 -38
10z"/>
<path d="M2277 1363 c-14 -4 -16 -8 -6 -19 16 -19 24 -18 26 6 1 11 1 19 0 19
-1 -1 -10 -3 -20 -6z"/>
<path d="M2228 1343 c7 -3 16 -2 19 1 4 3 -2 6 -13 5 -11 0 -14 -3 -6 -6z"/>
<path d="M2448 1343 c6 -2 18 -2 25 0 6 3 1 5 -13 5 -14 0 -19 -2 -12 -5z"/>
</g>
</svg>
